<?xml version="1.0" standalone="no"?>
<!DOCTYPE svg PUBLIC "-//W3C//DTD SVG 20010904//EN"
 "http://www.w3.org/TR/2001/REC-SVG-20010904/DTD/svg10.dtd">
<svg version="1.0" xmlns="http://www.w3.org/2000/svg"
 width="300.000000pt" height="300.000000pt" viewBox="0 0 300.000000 300.000000"
 preserveAspectRatio="xMidYMid meet">
<metadata>
Created by potrace 1.10, written by Peter Selinger 2001-2011
</metadata>
<g transform="translate(0.000000,300.000000) scale(0.100000,-0.100000)"
fill="#000000" stroke="none">
<path d="M1395 2686 c-5 -2 -42 -13 -81 -25 -75 -23 -91 -36 -142 -115 -28
-44 -32 -57 -32 -120 1 -87 19 -158 48 -189 12 -13 22 -28 22 -35 0 -6 11 -32
25 -58 14 -26 24 -56 24 -68 -1 -16 -2 -17 -6 -4 -2 9 -13 20 -24 23 -10 4
-19 11 -19 16 0 6 4 8 9 5 5 -4 7 4 3 16 -5 20 -6 20 -12 4 -5 -14 -9 -8 -19
24 -10 35 -10 44 1 51 10 7 9 9 -4 9 -9 0 -19 6 -21 13 -15 35 -5 -25 11 -71
23 -65 60 -114 81 -107 12 3 22 -10 39 -48 12 -29 39 -70 60 -93 37 -41 102
-81 102 -63 0 5 20 9 45 9 25 0 45 -5 45 -11 0 -5 5 -7 11 -4 6 4 8 13 5 21
-3 8 0 13 7 11 6 -1 13 8 15 21 2 13 8 20 14 16 6 -4 8 -2 5 3 -4 6 0 16 8 23
23 19 50 87 64 160 15 76 20 87 33 69 7 -10 8 -6 3 11 -3 14 -8 41 -9 61 -3
39 -37 100 -44 79 -3 -7 2 -16 9 -21 17 -10 18 -80 1 -172 -11 -59 -21 -84
-68 -168 -6 -10 -14 -16 -19 -11 -5 4 -5 2 -2 -4 3 -6 -1 -21 -10 -33 -12 -18
-17 -20 -24 -10 -6 10 -9 11 -9 2 0 -7 -5 -13 -11 -13 -6 0 -9 9 -6 20 7 25
-11 21 -38 -9 -18 -20 -24 -22 -43 -12 -12 6 -22 9 -22 5 0 -4 -31 35 -70 86
-38 51 -70 99 -70 105 0 7 -11 33 -25 59 -15 28 -25 64 -25 88 0 32 -3 39 -15
34 -25 -9 -17 9 20 42 19 17 37 28 40 22 3 -5 -3 -15 -14 -22 -18 -13 -18 -16
-4 -58 20 -61 47 -83 95 -77 l38 5 -25 -30 c-34 -40 -39 -68 -21 -109 15 -32
16 -32 12 -6 -2 20 1 27 14 27 10 0 23 -7 30 -15 17 -20 110 -20 136 1 18 14
18 15 -6 8 -36 -11 -115 -11 -118 0 -3 11 9 14 91 22 36 4 57 2 57 -4 0 -11
18 -11 37 1 6 4 14 1 16 -5 3 -7 6 1 6 18 1 18 -9 44 -24 65 l-26 34 37 6 c41
7 65 31 63 63 -2 19 -2 19 -6 -2 -7 -34 -45 -55 -93 -49 -45 5 -43 3 -59 35
-8 14 -8 22 -1 22 5 0 10 5 10 11 0 6 -7 9 -15 5 -17 -6 -20 20 -6 43 11 17
99 31 126 20 11 -4 14 -8 8 -8 -9 -1 -10 -8 -2 -28 16 -42 6 -51 -48 -47 -38
4 -43 2 -25 -5 12 -6 30 -8 40 -4 14 5 15 3 5 -8 -23 -24 -14 -33 10 -11 13
12 26 20 29 16 13 -12 2 94 -11 110 -15 18 -105 23 -116 6 -3 -5 -11 -7 -18
-4 -7 2 -21 -2 -32 -10 -20 -15 -19 -15 4 -16 13 0 21 -3 17 -7 -13 -14 -41
-8 -55 11 -11 14 -23 17 -57 13 -27 -3 -44 0 -44 6 0 5 -9 0 -20 -13 -11 -13
-20 -18 -20 -13 0 6 -7 14 -16 17 -15 6 -27 -1 -63 -36 -16 -16 -19 -16 -37
-3 -16 13 -16 14 -1 9 18 -6 19 -5 21 38 1 15 -2 24 -6 21 -5 -2 -6 -13 -3
-24 4 -11 2 -19 -4 -19 -6 0 -11 8 -12 18 0 9 -3 26 -5 37 -11 44 -5 118 10
132 9 7 11 8 6 1 -15 -18 -12 -38 5 -32 15 6 27 34 30 68 1 10 9 24 18 31 9 7
14 15 11 18 -6 6 57 36 86 40 8 2 20 5 25 8 6 4 28 9 50 12 22 3 32 3 23 1
-10 -3 -18 -13 -17 -22 0 -11 2 -12 6 -4 2 6 9 12 14 12 6 0 7 -4 4 -10 -3 -6
1 -7 9 -4 9 3 13 10 10 16 -3 5 3 4 14 -3 12 -7 19 -16 17 -19 -3 -4 7 -13 20
-20 13 -7 22 -17 18 -23 -3 -5 1 -13 8 -18 22 -14 35 -10 14 4 -14 11 -15 16
-5 22 7 4 15 3 19 -2 3 -5 31 -21 61 -36 44 -20 51 -27 36 -33 -11 -4 -21 -2
-26 7 -5 7 -12 10 -16 7 -4 -4 -16 -3 -28 3 -20 10 -20 10 -2 -5 11 -9 23 -16
28 -16 4 0 8 -8 9 -17 0 -11 3 -13 6 -5 5 14 53 17 53 3 0 -11 -40 -27 -55
-22 -5 2 -27 3 -47 3 -21 -1 -41 4 -44 10 -5 7 -2 8 6 3 9 -5 11 -4 6 3 -9 15
-46 16 -46 1 0 -5 -4 -8 -9 -4 -5 3 -12 2 -15 -3 -3 -4 23 -14 57 -22 34 -8
54 -16 44 -18 -9 -2 -14 -8 -11 -13 4 -6 13 -4 24 6 23 21 40 12 40 -21 0 -33
27 -84 44 -84 8 0 19 -15 26 -32 11 -32 12 -32 26 -14 8 11 12 27 10 35 -3 9
-7 42 -11 73 -6 69 -14 90 -28 81 -6 -4 -8 0 -4 11 15 39 -75 146 -123 146 -8
0 -30 9 -48 20 -31 19 -105 34 -127 26z m169 -62 c25 -5 96 -54 96 -67 0 -6
-8 -3 -18 6 -10 10 -23 17 -28 17 -5 0 -22 7 -38 15 -15 8 -31 13 -36 10 -4
-2 -16 2 -26 10 -19 15 -19 15 0 8 13 -4 17 -3 12 5 -4 7 -13 12 -20 12 -8 0
-20 8 -27 17 -11 13 -4 11 26 -6 22 -13 48 -25 59 -27z m131 -170 c19 -15 19
-15 -9 -8 -26 6 -28 5 -15 -8 8 -9 17 -14 22 -11 10 6 16 -14 20 -64 3 -34 1
-40 -10 -31 -7 6 -13 17 -13 24 0 8 -4 14 -10 14 -5 0 -10 5 -10 11 0 5 4 7
10 4 6 -3 7 1 4 9 -3 9 -12 16 -19 16 -13 0 -25 21 -25 46 0 18 30 17 55 -2z
m-270 -141 c21 -20 12 -79 -15 -107 -22 -22 -90 -27 -114 -7 -9 7 -21 31 -27
52 -15 47 -4 64 42 67 18 2 35 5 38 7 11 11 61 4 76 -12z m68 -61 c9 -21 37
-57 62 -81 25 -24 43 -46 40 -49 -2 -3 -13 2 -23 11 -10 10 -22 14 -25 10 -4
-3 -14 2 -21 13 -14 18 -15 18 -21 2 -9 -22 -34 -23 -41 -3 -5 11 -10 12 -26
4 -15 -8 -17 -13 -8 -19 7 -5 -2 -10 -24 -14 -22 -4 -36 -13 -36 -22 0 -13 3
-13 23 0 12 8 56 17 97 20 64 4 79 1 100 -15 l25 -19 -27 0 c-15 0 -29 4 -33
9 -6 10 -45 11 -45 1 0 -3 -23 -5 -50 -5 -32 0 -54 -5 -59 -14 -11 -18 -44
-10 -47 11 -1 10 11 31 26 48 31 34 70 107 70 133 0 30 26 18 43 -21z"/>
<path d="M1275 2300 c-3 -5 -1 -10 4 -10 6 0 11 5 11 10 0 6 -2 10 -4 10 -3 0
-8 -4 -11 -10z"/>
<path d="M1333 2288 c-18 -5 -33 -13 -33 -18 0 -5 -8 -6 -17 -3 -16 6 -16 5
-4 -10 13 -17 15 -16 34 0 11 10 18 13 14 7 -4 -7 2 -9 18 -6 14 2 22 9 19 14
-4 6 1 8 14 4 12 -4 22 -1 25 7 6 17 -21 19 -70 5z"/>
<path d="M1375 2251 c-6 -5 -21 -11 -35 -14 -16 -3 -11 -4 12 -4 21 1 40 7 42
14 6 15 -6 17 -19 4z"/>
<path d="M1368 2643 c7 -3 16 -2 19 1 4 3 -2 6 -13 5 -11 0 -14 -3 -6 -6z"/>
<path d="M1340 2615 c-19 -7 -31 -14 -26 -14 5 -1 3 -8 -4 -16 -8 -9 -9 -15
-2 -15 6 0 13 4 17 9 3 6 20 4 40 -5 22 -9 35 -10 35 -4 0 6 -13 13 -30 17
-37 7 -38 16 -2 30 15 6 23 11 17 11 -5 0 -26 -6 -45 -13z"/>
<path d="M1472 2598 c4 -8 1 -21 -5 -28 -8 -9 -9 -11 -1 -7 7 4 17 0 24 -8 7
-8 18 -15 24 -15 6 0 22 -9 36 -20 29 -23 48 -26 31 -6 -7 8 -33 24 -58 36
-26 12 -42 25 -36 28 7 5 5 12 -5 22 -14 13 -15 12 -10 -2z"/>
<path d="M1276 2585 c-11 -8 -15 -15 -9 -15 6 0 16 7 23 15 16 19 11 19 -14 0z"/>
<path d="M1434 2581 c0 -15 3 -17 13 -9 7 6 13 14 13 19 0 5 -6 9 -13 9 -7 0
-13 -9 -13 -19z"/>
<path d="M1393 2543 c9 -2 25 -2 35 0 9 3 1 5 -18 5 -19 0 -27 -2 -17 -5z"/>
<path d="M1296 2523 c-13 -14 -4 -20 22 -15 31 5 20 -13 -13 -21 -19 -4 -19
-5 1 -6 12 0 27 6 34 14 7 9 30 15 54 16 l41 1 -39 9 c-29 7 -42 6 -48 -3 -4
-7 -8 -8 -8 -3 0 12 -34 17 -44 8z"/>
<path d="M1235 2500 c-3 -5 -2 -10 4 -10 5 0 13 5 16 10 3 6 2 10 -4 10 -5 0
-13 -4 -16 -10z"/>
<path d="M1400 2491 c-8 -6 -18 -7 -24 -4 -5 3 -6 1 -2 -5 5 -9 13 -9 27 -2
10 6 19 13 19 15 0 7 -3 6 -20 -4z"/>
<path d="M1194 2453 c1 -35 20 -29 29 10 6 21 5 21 -8 4 -13 -18 -13 -18 -18
0 -2 10 -4 4 -3 -14z"/>
<path d="M1525 2455 c-5 -2 -30 -6 -55 -8 -38 -3 -45 -6 -42 -23 2 -17 1 -18
-11 -2 -12 15 -14 15 -25 -3 -16 -25 -16 -26 9 -24 12 1 28 10 35 19 8 11 31
20 58 23 26 3 46 10 46 14 0 5 -1 9 -2 8 -2 0 -7 -2 -13 -4z"/>
<path d="M1320 2421 c0 -6 4 -13 10 -16 6 -3 7 1 4 9 -7 18 -14 21 -14 7z"/>
<path d="M1486 2414 c-22 -21 -20 -27 4 -14 11 6 20 15 20 20 0 14 -6 12 -24
-6z"/>
<path d="M1210 2398 c1 -16 30 -56 30 -41 0 7 -5 15 -11 18 -6 4 -8 13 -5 21
3 8 1 14 -4 14 -6 0 -10 -6 -10 -12z"/>
<path d="M1251 2384 c0 -11 3 -14 6 -6 3 7 2 16 -1 19 -3 4 -6 -2 -5 -13z"/>
<path d="M1280 2393 c0 -4 7 -17 16 -28 14 -19 14 -19 11 5 -3 22 -27 43 -27
23z"/>
<path d="M1340 2380 c-12 -7 -10 -9 7 -7 12 0 19 5 17 9 -6 10 -6 10 -24 -2z"/>
<path d="M1440 2379 c0 -5 5 -7 10 -4 6 3 10 8 10 11 0 2 -4 4 -10 4 -5 0 -10
-5 -10 -11z"/>
<path d="M1540 2316 c13 -18 13 -19 -1 -14 -9 3 -22 2 -30 -3 -12 -7 -12 -9 1
-10 16 -2 32 -5 40 -9 19 -7 41 -7 46 1 3 5 10 6 16 3 6 -4 9 -1 6 7 -2 8 -18
16 -34 17 -16 2 -36 9 -44 15 -13 11 -13 10 0 -7z"/>
<path d="M1690 2120 c0 -5 5 -10 10 -10 6 0 10 5 10 10 0 6 -4 10 -10 10 -5 0
-10 -4 -10 -10z"/>
<path d="M1541 2030 c-13 -11 -19 -20 -13 -20 10 0 42 27 42 36 0 7 -4 5 -29
-16z"/>
<path d="M1604 2021 c0 -11 4 -17 8 -15 4 3 8 12 8 20 0 8 -4 14 -8 14 -4 0
-8 -9 -8 -19z"/>
<path d="M1420 2010 c8 -5 26 -10 39 -10 32 0 24 6 -19 14 -25 4 -31 3 -20 -4z"/>
<path d="M1546 2002 c-3 -5 -31 -10 -62 -11 -63 -2 -74 -6 -73 -24 0 -7 2 -7
5 -2 2 6 29 8 60 7 40 -3 60 0 73 12 10 9 21 13 24 9 4 -3 7 -1 7 5 0 14 -26
16 -34 4z"/>
<path d="M1540 1940 c0 -5 5 -10 11 -10 5 0 7 5 4 10 -3 6 -8 10 -11 10 -2 0
-4 -4 -4 -10z"/>
<path d="M1420 1930 c-12 -7 -10 -9 7 -7 12 0 19 5 17 9 -6 10 -6 10 -24 -2z"/>
<path d="M1320 1902 c0 -23 -8 -32 -42 -50 -69 -37 -87 -48 -111 -69 -12 -11
-39 -32 -60 -45 -24 -16 -33 -28 -25 -30 17 -6 56 18 95 61 39 43 51 35 29
-19 -9 -23 -13 -46 -10 -52 5 -7 11 -2 16 13 9 24 10 24 34 -16 28 -47 29 -55
9 -55 -9 0 -15 9 -15 24 0 31 -11 38 -28 20 -7 -8 -8 -14 -2 -14 21 0 10 -50
-15 -66 -22 -15 -25 -23 -24 -78 1 -33 5 -90 9 -126 l7 -65 3 60 3 60 7 -50
c4 -35 6 -16 6 61 -1 116 12 164 43 164 10 0 12 -3 5 -8 -29 -19 -23 -67 41
-336 36 -151 65 -278 65 -282 0 -13 -51 48 -61 73 -5 13 -13 22 -19 18 -10 -6
-2 -35 10 -35 5 0 11 -13 15 -30 4 -16 12 -33 19 -37 7 -5 18 -24 25 -43 6
-19 22 -44 36 -54 25 -18 36 -44 13 -30 -7 4 -8 3 -4 -5 4 -6 11 -9 16 -6 5 3
16 -5 24 -17 11 -15 16 -18 16 -8 1 11 3 10 11 -3 6 -10 9 -21 6 -24 -3 -2 3
-13 14 -24 10 -10 17 -24 15 -31 -1 -7 -1 -9 2 -5 2 4 10 0 18 -10 21 -28 17
4 -4 35 -10 15 -26 44 -36 65 -10 21 -20 36 -23 33 -12 -11 -60 70 -78 131
-14 48 -15 68 -7 92 12 35 6 43 -7 9 -7 -20 -9 -18 -15 16 -5 26 -3 42 5 50 9
8 11 7 6 -6 -3 -10 -2 -20 3 -23 14 -9 12 8 -11 110 -12 50 -21 96 -22 103 0
6 -4 12 -10 12 -10 0 -2 -71 11 -98 13 -25 22 -91 13 -96 -4 -3 -13 23 -20 57
-7 34 -19 96 -27 137 -19 93 -29 220 -20 255 l7 27 26 -26 c14 -14 30 -26 35
-26 5 0 6 -4 3 -10 -3 -5 0 -10 8 -10 8 0 18 -7 21 -16 3 -9 13 -14 21 -10 8
3 17 1 21 -5 3 -6 18 -10 32 -9 43 3 54 1 47 -10 -3 -5 -2 -10 4 -10 17 0 23
-40 9 -57 -7 -9 -8 -14 -2 -10 7 4 14 -2 18 -16 9 -34 7 -40 -9 -27 -8 6 -18
9 -24 6 -5 -4 -40 21 -78 54 -37 33 -71 60 -75 60 -14 0 74 -122 113 -157 22
-20 37 -38 34 -41 -3 -3 -14 3 -25 13 -11 10 -20 14 -20 9 0 -6 17 -26 38 -45
47 -43 63 -113 36 -154 -11 -17 -14 -36 -9 -69 5 -31 4 -46 -4 -46 -6 0 -11
-16 -11 -36 0 -19 -4 -33 -9 -30 -13 8 -1 -31 13 -43 9 -8 11 3 8 45 -2 35 1
54 8 54 7 0 11 15 10 38 -1 20 -1 51 0 67 2 30 2 30 10 5 4 -14 8 -44 9 -67
l1 -42 38 6 c20 3 39 8 42 12 3 3 1 52 -5 107 -8 84 -12 99 -23 88 -7 -8 -8
-14 -2 -14 5 0 10 -7 10 -15 0 -8 -6 -12 -14 -9 -8 3 -17 0 -22 -7 -4 -7 -3
-10 4 -5 20 12 42 -36 42 -91 l0 -53 -32 1 c-28 0 -30 2 -13 9 17 7 17 9 3 9
-10 1 -18 7 -18 14 0 6 -5 64 -11 127 -5 63 -7 152 -3 197 6 76 8 81 31 86 23
4 24 2 22 -32 -1 -20 -1 -72 1 -116 2 -64 4 -73 10 -45 4 19 8 29 9 21 0 -8 4
-11 7 -8 4 4 2 13 -5 20 -18 23 -11 99 12 120 16 14 17 17 4 17 -8 0 -18 -6
-20 -12 -3 -7 -6 2 -6 20 -1 25 -5 32 -20 32 -29 0 -34 17 -8 25 45 14 47 14
48 -18 l1 -32 7 30 c4 17 3 32 -1 33 -4 2 -8 13 -8 25 0 23 31 111 43 123 4 4
7 21 7 38 l-1 31 -20 -38 c-11 -21 -17 -43 -13 -49 5 -7 3 -8 -6 -3 -10 6 -12
4 -7 -8 3 -10 3 -17 -1 -17 -5 0 -16 -17 -25 -37 -14 -30 -14 -34 -2 -19 14
19 15 18 14 -15 0 -19 -3 -28 -6 -21 -10 25 -41 12 -55 -24 l-15 -37 -6 30
c-6 28 -10 30 -61 36 -31 3 -65 12 -77 21 -63 44 -159 155 -159 184 0 5 23 31
50 59 39 39 50 58 50 82 0 17 -2 31 -5 31 -3 0 -5 -13 -5 -28z m-127 -379 c-7
-91 -13 -93 -13 -5 0 40 4 72 9 72 5 0 6 -30 4 -67z m324 -182 c2 -47 0 -51
-14 -40 -10 9 -11 15 -4 17 7 2 3 15 -10 34 -18 25 -19 32 -8 39 25 16 34 3
36 -50z m-147 -373 c0 -19 -2 -20 -10 -8 -13 19 -13 30 0 30 6 0 10 -10 10
-22z"/>
<path d="M1650 1881 c0 -17 5 -31 10 -31 6 0 10 11 10 24 0 14 -4 28 -10 31
-6 4 -10 -7 -10 -24z"/>
<path d="M1357 1859 c5 -20 18 -25 27 -11 2 4 -4 13 -14 19 -15 10 -17 9 -13
-8z"/>
<path d="M1607 1873 c-2 -5 -7 -20 -11 -35 -5 -22 -3 -26 9 -22 9 4 15 18 15
35 0 29 -5 36 -13 22z"/>
<path d="M1482 1839 l-24 -9 31 -35 c34 -40 40 -54 14 -34 -16 12 -17 11 -3
-4 20 -22 60 -12 55 14 -4 21 5 25 22 8 7 -7 12 -6 16 5 7 17 -29 19 -51 2
-10 -7 -18 -4 -30 11 -10 11 -24 23 -32 26 -12 4 -12 6 2 6 9 1 20 6 23 11 7
12 7 12 -23 -1z"/>
<path d="M1526 1836 c3 -8 13 -17 22 -21 13 -5 13 -2 -3 15 -21 24 -26 25 -19
6z"/>
<path d="M1375 1820 c3 -5 8 -10 11 -10 2 0 4 5 4 10 0 6 -5 10 -11 10 -5 0
-7 -4 -4 -10z"/>
<path d="M1650 1820 c0 -8 14 -37 30 -65 72 -123 82 -170 76 -355 -3 -80 -2
-121 3 -100 5 22 9 -46 10 -183 1 -157 4 -216 12 -211 11 6 10 2 -8 -58 -7
-23 -9 -46 -11 -131 -1 -29 -6 -46 -12 -42 -5 3 -10 1 -10 -4 0 -6 3 -11 8
-11 4 0 8 -44 9 -98 3 -190 6 -229 14 -197 l7 30 1 -32 c0 -17 5 -34 10 -38
14 -8 5 84 -10 101 -8 10 -9 14 0 14 8 0 9 5 2 19 -15 27 -13 234 1 225 7 -5
8 -2 3 6 -12 19 -7 101 10 185 17 78 18 90 5 60 -10 -26 -2 124 11 185 5 25
13 84 19 131 11 96 42 200 71 240 24 35 24 43 -3 62 -14 9 -17 15 -8 14 26 -3
26 18 0 23 -31 6 -90 49 -90 66 0 6 -7 17 -15 24 -48 40 34 -82 88 -131 44
-40 36 -62 -9 -27 -20 15 -25 17 -15 5 12 -15 12 -20 1 -30 -10 -10 -12 -9 -7
5 3 9 3 19 -1 23 -4 4 -7 10 -7 13 0 4 -16 27 -35 51 -19 23 -35 46 -36 50 0
3 -15 35 -32 71 -33 70 -82 135 -82 110z m153 -273 c-3 -4 1 -15 8 -23 9 -11
10 -43 5 -127 -4 -62 -7 -132 -7 -157 1 -25 -3 -52 -8 -60 -7 -11 -10 -5 -10
20 0 75 -20 376 -26 400 -6 21 -3 20 18 -10 14 -19 23 -39 20 -43z m77 -57 c0
-5 -4 -10 -10 -10 -5 0 -10 5 -10 10 0 6 5 10 10 10 6 0 10 -4 10 -10z"/>
<path d="M1400 1810 c0 -5 5 -10 11 -10 5 0 7 5 4 10 -3 6 -8 10 -11 10 -2 0
-4 -4 -4 -10z"/>
<path d="M1431 1781 c0 -14 3 -20 6 -14 3 10 10 10 26 1 21 -11 21 -10 4 9 -9
11 -15 22 -12 25 3 2 -2 5 -10 5 -10 0 -15 -10 -14 -26z"/>
<path d="M1553 1734 c9 -16 -19 -25 -49 -18 -14 4 -24 2 -24 -5 0 -14 77 -14
86 0 3 6 1 16 -6 22 -9 9 -11 9 -7 1z"/>
<path d="M1029 1708 c-28 -11 -69 -47 -70 -62 0 -6 -34 -35 -75 -65 -41 -30
-74 -58 -74 -63 0 -5 -18 -48 -41 -96 -61 -130 -66 -142 -89 -200 -11 -29 -20
-68 -20 -87 0 -27 -4 -34 -22 -37 -21 -3 -23 -8 -20 -48 3 -40 -1 -50 -30 -81
-18 -20 -38 -53 -45 -75 -10 -34 -10 -41 7 -58 15 -15 16 -23 7 -43 -8 -18 -8
-29 1 -44 10 -16 10 -24 -3 -42 -20 -28 -19 -53 1 -61 13 -5 15 -15 9 -52 l-7
-46 94 -92 c51 -50 119 -115 151 -144 52 -49 72 -73 47 -57 -6 3 -7 -1 -4 -9
3 -9 17 -16 29 -16 27 0 94 -40 95 -56 0 -6 11 -17 25 -24 19 -10 25 -21 25
-46 0 -46 -10 -70 -22 -52 -8 10 -9 10 -5 -2 2 -8 0 -23 -5 -32 -6 -13 -5 -18
5 -18 8 0 20 19 27 45 7 25 15 45 19 45 4 0 22 -13 41 -28 44 -36 97 -62 124
-62 16 1 13 5 -16 20 -28 15 -35 24 -31 40 3 11 8 18 12 16 3 -2 5 13 3 34 -4
41 22 105 39 94 5 -3 27 2 47 12 50 24 124 28 202 12 59 -13 65 -16 65 -38 0
-25 -1 -25 -87 -25 -47 0 -88 -2 -91 -5 -8 -9 -55 -115 -62 -137 -5 -17 -2
-23 9 -23 9 0 16 8 16 18 0 10 5 23 12 30 7 7 9 12 5 12 -8 0 32 78 44 86 13
8 11 -10 -3 -24 -18 -18 2 -15 22 3 15 14 20 14 46 0 25 -13 31 -13 51 0 12 8
31 15 43 15 12 0 20 7 21 18 1 9 2 24 3 32 2 22 -49 57 -93 64 -34 5 -45 15
-52 44 -1 4 -9 12 -18 19 -12 9 -13 12 -2 13 11 0 11 3 1 15 -7 8 -10 24 -7
34 3 13 1 18 -8 15 -7 -3 -12 1 -12 10 1 8 -2 14 -6 13 -13 -3 -37 46 -31 64
2 9 -2 19 -11 23 -20 7 -20 11 21 -91 56 -139 66 -167 51 -155 -6 5 -24 8 -39
6 -17 -1 -28 2 -28 9 0 7 -7 3 -15 -7 -8 -11 -15 -18 -16 -15 0 2 -3 27 -6 54
-7 71 -17 72 -10 2 5 -53 3 -59 -17 -67 -25 -9 -78 -2 -71 10 3 4 -3 7 -13 6
-12 -1 -16 5 -14 19 2 15 0 16 -6 7 -7 -11 -17 -7 -46 18 -31 27 -34 35 -25
52 7 14 8 23 1 27 -6 3 -9 33 -9 66 2 64 -8 149 -20 168 -4 7 7 -2 25 -20 18
-17 32 -36 32 -42 0 -6 5 -11 10 -11 6 0 16 -11 22 -25 6 -14 16 -24 22 -22 6
3 24 -7 40 -22 17 -14 -13 20 -65 77 -91 99 -110 130 -79 124 11 -2 11 1 -3
12 -13 10 -18 30 -20 82 -1 38 -6 72 -12 76 -6 4 -2 8 8 8 20 0 23 25 5 37 -7
4 -24 9 -37 11 -21 3 -22 2 -8 -13 19 -18 24 -46 33 -179 3 -54 10 -112 15
-130 6 -20 5 -32 -1 -34 -5 -2 -10 -17 -10 -33 0 -17 -4 -28 -9 -24 -5 3 -12
1 -16 -5 -3 -5 -2 -10 2 -10 5 0 8 -16 7 -35 -1 -19 2 -32 7 -29 5 3 9 21 9
40 0 19 5 34 11 34 7 0 9 10 5 28 -5 20 -4 23 4 12 13 -20 13 -90 -1 -90 -7 0
-8 -16 -3 -45 3 -25 4 -45 0 -45 -3 0 -21 17 -40 37 l-34 37 -7 161 c-3 88
-10 176 -14 196 -6 28 -4 40 11 59 25 31 16 110 -19 164 -23 35 -26 37 -41 22
-14 -14 -13 -18 13 -44 15 -16 30 -39 32 -53 1 -13 5 -34 8 -46 3 -13 1 -23
-5 -23 -5 0 -10 13 -10 29 0 20 -9 37 -31 56 -35 29 -40 57 -16 104 9 17 11
28 5 25 -5 -4 -18 -24 -27 -45 l-18 -39 -24 26 c-13 14 -52 49 -87 77 -61 49
-63 53 -57 87 3 19 12 40 18 45 7 6 18 32 25 60 7 27 21 58 30 68 9 11 16 21
15 23 -2 2 9 30 24 61 27 59 30 66 32 82 2 15 145 118 159 114 6 -3 12 -14 12
-26 0 -15 3 -18 8 -9 6 8 13 2 25 -22 9 -19 25 -37 36 -41 12 -3 21 -13 21
-20 0 -16 17 -29 24 -17 2 4 -14 28 -37 53 -23 25 -54 60 -69 79 l-28 34 28
18 c35 23 62 23 62 1 0 -10 7 -27 15 -37 15 -19 15 -19 15 1 0 12 -6 24 -12
26 -7 3 0 6 16 6 21 1 27 -3 22 -14 -4 -11 4 -8 24 7 36 26 37 30 8 19 -28 -9
-61 -2 -86 20 -14 12 -25 13 -43 7z m-306 -626 c19 -19 24 -31 17 -38 -8 -8
-6 -15 6 -25 15 -12 16 -12 10 9 -11 35 4 26 71 -38 34 -33 67 -60 74 -60 6 0
9 -6 6 -14 -3 -8 1 -17 9 -20 9 -3 14 -19 13 -43 l-1 -38 -10 33 c-10 30 -28
44 -28 21 0 -5 -4 -7 -10 -4 -5 3 -10 1 -10 -5 0 -7 7 -9 15 -6 10 3 18 -1 22
-11 4 -9 1 -19 -5 -21 -7 -2 -10 -7 -7 -12 3 -4 -2 -10 -10 -14 -8 -3 -15 -1
-15 5 0 6 -4 7 -10 4 -5 -3 -10 -2 -10 2 0 8 -84 43 -102 43 -5 0 -8 -9 -8
-20 0 -13 5 -18 15 -14 8 3 38 -2 67 -12 29 -10 57 -18 62 -19 4 0 10 -17 12
-38 3 -40 -21 -77 -51 -77 -8 0 -15 -5 -15 -11 0 -6 -10 -8 -22 -5 l-23 6 23
-11 c23 -12 30 -29 12 -29 -6 0 -5 -6 2 -14 7 -8 16 -12 20 -10 4 2 10 0 13
-6 4 -6 -10 -17 -32 -26 -43 -18 -111 -86 -120 -122 -5 -21 -7 -22 -15 -8 -5
9 -6 21 -2 28 4 7 3 8 -5 4 -6 -4 -28 8 -52 31 -34 32 -39 42 -35 67 4 16 14
38 23 48 18 20 11 23 -18 8 -15 -8 -19 -7 -19 4 0 11 16 15 74 15 89 0 126 8
126 27 0 10 -6 11 -26 4 -42 -16 -116 -21 -164 -11 -38 8 -42 10 -22 16 26 9
32 34 15 75 -19 46 -10 49 55 20 23 -11 40 -14 36 -8 -5 8 0 9 14 5 12 -4 31
-10 42 -13 16 -5 19 -3 14 10 -3 9 -15 16 -26 16 -11 0 -33 9 -49 20 -15 12
-49 30 -75 41 -29 13 -42 24 -35 28 7 5 11 12 10 17 -4 22 2 35 13 28 7 -5 9
-2 5 8 -6 17 34 62 46 53 4 -3 5 -2 2 2 -3 3 2 17 10 29 8 12 11 24 6 26 -5 2
-12 13 -15 26 -5 16 -3 22 7 22 8 0 20 7 27 15 17 21 22 19 53 -13z m-99 -269
c23 -15 43 -29 45 -30 2 -2 2 -5 -1 -8 -9 -10 -87 30 -92 48 -6 23 1 22 48
-10z m315 -115 c1 -57 5 -138 9 -180 8 -76 7 -77 -14 -72 -16 4 -23 0 -28 -18
-10 -38 -7 -55 9 -55 8 0 15 4 15 9 0 4 -4 8 -10 8 -5 0 -10 7 -10 16 0 8 4
12 10 9 6 -4 7 1 3 11 -5 14 -3 16 11 11 10 -4 20 -7 22 -7 2 0 4 -5 4 -11 0
-5 -4 -7 -10 -4 -16 10 -11 -7 6 -19 8 -6 16 -26 16 -44 1 -20 4 -28 9 -21 4
7 4 19 1 28 -6 15 74 -44 114 -85 12 -12 36 -30 55 -39 19 -10 35 -19 37 -20
1 -1 -4 -15 -13 -31 -8 -16 -20 -55 -26 -86 -12 -67 -2 -71 -125 46 -45 44
-91 84 -102 90 -11 6 -41 30 -67 54 -52 47 -54 67 -13 112 13 13 22 27 20 30
-2 2 2 6 9 9 7 2 9 -1 4 -9 -5 -9 -4 -11 4 -6 6 4 9 12 6 17 -4 5 5 14 19 21
20 9 26 18 26 45 0 22 -5 33 -14 33 -8 0 -24 21 -37 48 -12 26 -27 50 -33 54
-6 4 1 8 16 8 33 0 60 36 57 77 -3 45 0 73 10 73 4 0 9 -46 10 -102z m-349 8
c0 -3 -4 -8 -10 -11 -5 -3 -10 -1 -10 4 0 6 5 11 10 11 6 0 10 -2 10 -4z m280
-160 c0 -8 9 -18 20 -21 20 -6 20 -7 3 -36 -10 -16 -24 -31 -33 -34 -17 -6
-66 -74 -62 -87 5 -16 -14 -7 -45 23 -32 29 -43 59 -23 59 5 0 7 6 4 14 -6 17
39 63 81 82 39 17 55 17 55 0z"/>
<path d="M666 1048 c23 -75 89 -153 138 -164 17 -3 37 -11 44 -16 8 -7 12 -7
12 0 0 6 -26 23 -59 39 -45 22 -61 35 -70 61 -7 17 -16 32 -22 32 -5 0 -15 16
-23 35 -17 39 -31 48 -20 13z"/>
<path d="M780 985 c0 -8 4 -15 10 -15 5 0 7 7 4 15 -4 8 -8 15 -10 15 -2 0 -4
-7 -4 -15z"/>
<path d="M834 935 c17 -13 33 -22 37 -19 4 2 10 -2 12 -8 4 -10 6 -10 6 -1 1
7 -18 22 -41 33 l-43 20 29 -25z"/>
<path d="M586 771 c-3 -5 8 -11 25 -15 17 -3 28 -9 26 -13 -3 -5 18 -9 46 -10
50 -1 50 -1 12 6 -22 4 -54 15 -72 24 -17 9 -34 13 -37 8z"/>
<path d="M765 750 c-3 -5 0 -10 7 -11 7 -1 2 -5 -12 -10 l-25 -8 24 2 c14 1
25 9 27 20 2 18 -11 23 -21 7z"/>
<path d="M800 750 c0 -5 5 -10 10 -10 6 0 10 5 10 10 0 6 -4 10 -10 10 -5 0
-10 -4 -10 -10z"/>
<path d="M651 716 c10 -10 149 -23 149 -14 0 4 -13 8 -29 8 -15 0 -50 3 -77 6
-27 4 -46 4 -43 0z"/>
<path d="M688 623 c6 -2 18 -2 25 0 6 3 1 5 -13 5 -14 0 -19 -2 -12 -5z"/>
<path d="M771 621 c-8 -5 -9 -11 -3 -15 5 -3 15 1 22 9 14 16 3 20 -19 6z"/>
<path d="M630 571 c0 -6 4 -13 10 -16 6 -3 7 1 4 9 -7 18 -14 21 -14 7z"/>
<path d="M910 611 c0 -28 5 -51 10 -51 6 0 10 20 10 44 0 25 -4 48 -10 51 -6
4 -10 -13 -10 -44z"/>
<path d="M940 370 c-6 -11 -8 -20 -6 -20 3 0 10 9 16 20 6 11 8 20 6 20 -3 0
-10 -9 -16 -20z"/>
<path d="M882 350 c0 -14 2 -19 5 -12 2 6 2 18 0 25 -3 6 -5 1 -5 -13z"/>
<path d="M907 324 c8 -53 20 -84 33 -84 5 0 10 5 10 11 0 5 -4 8 -9 5 -10 -7
-26 48 -18 61 3 5 -1 17 -8 27 -13 17 -14 14 -8 -20z"/>
<path d="M880 301 c0 -6 4 -13 10 -16 6 -3 7 1 4 9 -7 18 -14 21 -14 7z"/>
<path d="M943 296 c0 -8 6 -12 14 -9 7 3 10 9 7 14 -8 14 -21 11 -21 -5z"/>
<path d="M1046 273 c-6 -14 -5 -15 5 -6 7 7 10 15 7 18 -3 3 -9 -2 -12 -12z"/>
<path d="M971 262 c-7 -13 -11 -28 -8 -35 2 -7 9 -2 16 11 7 13 11 28 8 35 -2
7 -9 2 -16 -11z"/>
<path d="M1020 268 c0 -7 -3 -23 -6 -35 -5 -17 -2 -23 9 -23 8 0 18 -6 20 -12
3 -7 6 -2 6 11 1 15 -3 21 -12 18 -10 -4 -12 3 -9 24 2 16 2 29 -2 29 -3 0 -6
-6 -6 -12z"/>
<path d="M1083 216 c22 -52 21 -52 5 -38 -10 8 -8 -4 9 -38 13 -27 28 -50 33
-50 13 0 12 41 -1 60 -8 11 -9 7 -6 -20 l6 -35 -15 32 c-15 34 -9 77 7 51 5
-7 9 -8 9 -2 0 6 -12 21 -27 33 -18 17 -24 19 -20 7z"/>
<path d="M1020 175 c0 -8 4 -15 10 -15 5 0 7 7 4 15 -4 8 -8 15 -10 15 -2 0
-4 -7 -4 -15z"/>
<path d="M1141 164 c0 -11 3 -14 6 -6 3 7 2 16 -1 19 -3 4 -6 -2 -5 -13z"/>
<path d="M1740 1716 c0 -2 7 -6 15 -10 8 -3 15 -1 15 4 0 6 -7 10 -15 10 -8 0
-15 -2 -15 -4z"/>
<path d="M1810 1714 c0 -3 9 -17 20 -31 11 -14 20 -31 20 -38 0 -7 8 -19 18
-26 15 -12 16 -12 4 2 -9 12 -10 24 -2 44 6 16 7 31 3 35 -11 10 -63 22 -63
14z"/>
<path d="M1913 1679 c9 -6 15 -14 12 -19 -3 -5 -1 -19 5 -31 18 -33 4 -34 -16
0 -10 16 -21 28 -25 25 -5 -3 4 -22 19 -43 22 -31 30 -36 44 -28 13 8 14 15 6
30 -11 22 -7 30 14 22 11 -4 14 -14 10 -28 -5 -20 -4 -21 12 -8 15 13 15 15 0
32 -10 11 -22 19 -29 19 -7 0 -20 9 -30 20 -10 11 -23 20 -29 20 -6 0 -3 -5 7
-11z"/>
<path d="M1544 1668 c-3 -4 -2 -13 1 -19 4 -6 -2 -5 -14 3 -17 10 -23 10 -33
-1 -11 -10 -10 -12 6 -9 35 6 27 -18 -11 -32 -21 -8 -42 -13 -46 -12 -5 1 -6
-2 -2 -8 4 -7 12 -7 25 0 10 5 27 10 38 10 10 0 29 11 42 25 13 14 20 25 16
25 -5 0 -3 6 3 13 8 10 7 14 -5 14 -8 0 -17 -4 -20 -9z"/>
<path d="M1661 1664 c0 -11 3 -14 6 -6 3 7 2 16 -1 19 -3 4 -6 -2 -5 -13z"/>
<path d="M1400 1655 c14 -8 30 -14 35 -14 6 0 -1 6 -15 14 -14 8 -29 14 -35
14 -5 0 1 -6 15 -14z"/>
<path d="M1723 1605 c2 -73 -33 -379 -49 -440 -9 -33 -20 -77 -25 -99 -5 -21
-16 -51 -24 -67 -17 -32 -18 -39 -7 -39 14 0 49 83 71 166 24 92 28 125 36
254 3 52 7 124 9 160 3 36 1 74 -4 85 -6 15 -7 10 -7 -20z"/>
<path d="M1155 1620 c-16 -7 -17 -9 -3 -9 9 -1 20 4 23 9 7 11 7 11 -20 0z"/>
<path d="M1670 1595 c-9 -70 -9 -80 1 -62 6 9 8 32 6 50 -2 18 -5 24 -7 12z"/>
<path d="M1967 1573 c-4 -3 -7 -16 -7 -27 0 -12 -16 -52 -35 -91 -19 -38 -35
-76 -35 -83 0 -7 -4 -10 -10 -7 -5 3 -10 4 -10 1 0 -4 -7 -52 -15 -109 -9 -56
-13 -113 -10 -125 4 -17 2 -22 -6 -16 -8 5 -10 -2 -7 -24 2 -17 1 -29 -3 -26
-5 3 -7 -8 -6 -23 0 -15 -2 -41 -6 -58 -6 -22 -5 -26 3 -15 8 13 10 12 11 -5
0 -20 0 -20 9 0 5 11 9 27 9 35 0 9 -4 8 -9 -5 -8 -19 -9 -19 -9 2 -1 12 5 28
12 35 6 7 13 24 15 38 3 30 11 165 11 201 1 34 33 110 55 128 9 7 16 23 16 35
0 28 22 76 35 76 6 0 20 -7 32 -15 21 -15 22 -21 16 -114 -4 -60 -2 -105 4
-116 8 -13 10 15 9 101 l-1 119 -32 20 c-26 17 -30 25 -26 48 5 27 2 33 -10
20z m-110 -435 c-3 -7 -5 -2 -5 12 0 14 2 19 5 13 2 -7 2 -19 0 -25z"/>
<path d="M2021 1533 c40 -71 49 -119 38 -206 -5 -44 -8 -81 -6 -83 8 -9 29 85
22 98 -4 7 4 1 18 -15 13 -15 27 -45 31 -67 3 -21 11 -42 17 -46 8 -4 9 1 5
17 -4 16 -1 13 11 -9 17 -32 16 -34 -13 -88 -16 -31 -36 -69 -44 -85 -12 -22
-22 -29 -46 -29 l-32 0 -1 -181 c-1 -108 -5 -188 -12 -201 -10 -19 -9 -18 20
3 17 12 31 28 31 35 0 16 24 24 77 26 41 1 42 2 38 33 -6 46 -23 85 -36 85 -8
0 -8 4 -1 13 19 24 32 133 19 167 -9 25 -9 39 5 77 22 60 17 67 -7 11 -40 -97
-80 -170 -97 -179 -24 -13 -24 -12 16 62 81 152 103 189 108 183 4 -3 5 6 4
20 -3 26 -58 139 -82 166 -7 8 -18 38 -24 65 -20 85 -52 165 -66 165 -10 0 -8
-10 7 -37z m129 -564 c0 -33 -51 -95 -69 -84 -8 4 56 113 67 115 1 0 2 -14 2
-31z m-25 -111 c-6 -20 -8 -35 -14 -85 0 -7 -13 -16 -27 -19 -18 -5 -22 -9
-13 -14 9 -6 8 -12 -4 -25 -10 -9 -17 -15 -18 -13 0 2 -1 25 -3 52 -3 40 0 49
15 53 25 7 24 19 -1 26 -33 9 -14 39 21 33 16 -2 29 0 29 5 0 5 5 9 11 9 7 0
9 -8 4 -22z m34 -120 c1 -12 -4 -15 -16 -11 -11 4 -14 3 -9 -5 5 -8 -1 -12
-18 -12 -18 0 -24 4 -20 15 4 8 15 15 25 15 21 0 26 16 7 23 -10 4 -9 8 2 16
16 11 28 -6 29 -41z"/>
<path d="M2087 804 c-3 -3 -3 -13 0 -21 5 -12 7 -12 14 -1 15 23 4 40 -14 22z"/>
<path d="M1330 1556 c0 -7 71 -49 75 -44 3 2 -13 15 -35 27 -22 12 -40 20 -40
17z"/>
<path d="M1470 1522 c0 -7 -11 -12 -24 -12 -14 0 -27 -4 -30 -8 -3 -5 8 -6 25
-4 29 4 46 18 35 29 -3 4 -6 1 -6 -5z"/>
<path d="M1300 1512 c0 -7 9 -22 19 -33 10 -11 28 -47 40 -79 13 -35 33 -67
50 -81 18 -14 27 -29 23 -38 -4 -13 -2 -14 9 -4 11 11 9 18 -9 40 -12 16 -38
57 -57 93 -41 75 -74 121 -75 102z"/>
<path d="M1435 1480 c3 -5 13 -10 21 -10 17 0 19 -16 2 -23 -8 -4 -9 -6 -2 -6
7 -1 20 11 30 27 11 18 13 23 3 15 -10 -8 -20 -9 -29 -3 -20 13 -33 12 -25 0z"/>
<path d="M1110 1458 c0 -8 3 -18 8 -22 4 -4 7 -11 8 -14 6 -55 19 -104 30
-113 8 -6 14 -23 14 -38 0 -15 5 -32 12 -39 7 -7 9 -12 5 -12 -4 0 -2 -10 5
-22 7 -13 11 -27 9 -33 -1 -7 1 -7 8 0 6 7 -6 58 -38 153 -46 137 -61 172 -61
140z"/>
<path d="M2756 1445 c-9 -26 -7 -32 5 -12 6 10 9 21 6 23 -2 3 -7 -2 -11 -11z"/>
<path d="M1555 1439 c-9 -14 -2 -20 14 -10 8 6 9 11 3 15 -6 3 -14 1 -17 -5z"/>
<path d="M1225 1378 c-6 -48 -4 -62 13 -90 11 -18 22 -52 25 -76 2 -23 8 -46
12 -50 5 -4 5 1 2 11 -4 11 -3 16 4 12 5 -4 7 -15 4 -26 -4 -10 -2 -19 4 -19
5 0 12 -8 15 -17 3 -10 2 2 -1 27 -3 25 -12 57 -19 72 -8 15 -14 38 -14 53 0
14 -5 25 -11 25 -5 0 -7 5 -4 10 4 6 1 17 -5 25 -7 8 -10 25 -7 37 3 13 2 32
-3 43 -6 15 -9 5 -15 -37z"/>
<path d="M2284 1415 c-16 -12 -17 -14 -3 -15 9 0 19 7 23 15 7 19 5 19 -20 0z"/>
<path d="M1556 1398 c3 -4 9 -8 15 -8 5 0 9 4 9 8 0 5 -7 9 -15 9 -8 0 -12 -4
-9 -9z"/>
<path d="M1631 1379 c-7 -12 -10 -23 -8 -26 3 -3 11 5 17 17 6 12 10 23 8 25
-2 2 -10 -5 -17 -16z"/>
<path d="M890 1361 c0 -6 4 -13 10 -16 6 -3 7 1 4 9 -7 18 -14 21 -14 7z"/>
<path d="M851 1334 c0 -11 3 -14 6 -6 3 7 2 16 -1 19 -3 4 -6 -2 -5 -13z"/>
<path d="M1193 1324 c-3 -8 -1 -25 4 -37 8 -18 10 -16 9 16 -1 41 -4 45 -13
21z"/>
<path d="M1571 1297 c-1 -11 -6 -15 -13 -11 -7 5 -8 3 -3 -5 10 -16 29 2 22
21 -4 8 -6 7 -6 -5z"/>
<path d="M786 1272 c-3 -5 1 -9 9 -9 8 0 12 4 9 9 -3 4 -7 8 -9 8 -2 0 -6 -4
-9 -8z"/>
<path d="M2082 1252 c-12 -15 -25 -37 -28 -49 -3 -13 -10 -23 -16 -23 -5 0 -7
-4 -4 -8 3 -5 -4 -32 -14 -61 -21 -55 -28 -109 -10 -81 5 8 10 24 10 35 0 22
36 113 63 160 l17 30 -4 -70 -5 -70 10 55 c5 30 8 67 7 82 l-3 27 -23 -27z"/>
<path d="M890 1266 c0 -2 8 -10 18 -17 15 -13 16 -12 3 4 -13 16 -21 21 -21
13z"/>
<path d="M1226 1235 c-9 -26 -7 -32 5 -12 6 10 9 21 6 23 -2 3 -7 -2 -11 -11z"/>
<path d="M1737 1220 c-3 -19 -9 -64 -12 -100 -8 -85 -11 -107 -30 -220 -14
-89 -20 -183 -8 -150 2 8 7 22 10 30 3 8 7 24 8 35 1 11 5 47 9 80 5 33 10 76
12 95 2 19 9 78 15 130 12 97 9 168 -4 100z"/>
<path d="M1881 1224 c0 -11 3 -14 6 -6 3 7 2 16 -1 19 -3 4 -6 -2 -5 -13z"/>
<path d="M2033 1225 c0 -8 4 -12 9 -9 5 3 6 10 3 15 -9 13 -12 11 -12 -6z"/>
<path d="M1957 1219 c7 -7 15 -10 18 -7 3 3 -2 9 -12 12 -14 6 -15 5 -6 -5z"/>
<path d="M1908 1213 c7 -3 16 -2 19 1 4 3 -2 6 -13 5 -11 0 -14 -3 -6 -6z"/>
<path d="M1942 1175 c6 -14 13 -24 14 -22 6 6 -9 47 -17 47 -5 0 -3 -11 3 -25z"/>
<path d="M1417 1171 c-4 -17 -3 -21 5 -13 5 5 8 16 6 23 -3 8 -7 3 -11 -10z"/>
<path d="M1485 1179 c-4 -6 -5 -12 -2 -15 2 -3 7 2 10 11 7 17 1 20 -8 4z"/>
<path d="M864 1165 c8 -8 18 -15 22 -15 3 0 1 7 -6 15 -7 8 -17 15 -22 15 -5
0 -3 -7 6 -15z"/>
<path d="M1560 1155 c0 -9 5 -15 11 -13 6 2 11 8 11 13 0 5 -5 11 -11 13 -6 2
-11 -4 -11 -13z"/>
<path d="M945 1130 c-10 -11 -21 -18 -24 -15 -4 2 -8 -5 -8 -16 -2 -24 10 -17
37 21 24 34 22 39 -5 10z"/>
<path d="M1216 1143 c-3 -3 -6 -13 -6 -22 0 -14 2 -14 10 -1 7 10 10 11 11 3
3 -22 4 -27 23 -61 9 -19 15 -41 11 -50 -3 -9 -3 -13 1 -9 7 7 43 -57 44 -79
0 -5 12 -35 26 -65 15 -30 38 -83 51 -118 32 -87 103 -234 109 -228 3 3 -4 20
-14 38 -19 34 -72 185 -72 204 0 6 5 3 11 -5 9 -13 10 -13 6 0 -2 8 -10 15
-17 15 -7 0 -14 7 -15 15 -2 8 -27 67 -58 130 -75 158 -97 207 -97 219 0 13
-15 22 -24 14z"/>
<path d="M2071 1128 c-1 -10 -5 -18 -11 -18 -15 0 -12 -17 4 -23 18 -7 26 12
15 38 -6 17 -8 17 -8 3z"/>
<path d="M1410 1123 c0 -15 29 -49 30 -35 0 7 -7 20 -15 28 -8 9 -15 11 -15 7z"/>
<path d="M1001 1088 c-1 -9 50 -140 58 -150 4 -4 8 3 9 16 1 13 -5 29 -13 36
-8 7 -15 21 -15 31 0 11 -4 19 -8 19 -5 0 -13 12 -19 28 -6 15 -11 24 -12 20z"/>
<path d="M2049 1066 c14 -14 26 -24 29 -22 7 8 -8 25 -31 37 -21 11 -21 10 2
-15z"/>
<path d="M930 1073 c0 -9 58 -113 63 -113 2 0 3 16 3 35 0 19 -3 30 -7 23 -4
-7 -13 1 -23 20 -16 31 -36 50 -36 35z"/>
<path d="M966 1067 c3 -10 9 -15 12 -12 3 3 0 11 -7 18 -10 9 -11 8 -5 -6z"/>
<path d="M1947 1069 c7 -7 15 -10 18 -7 3 3 -2 9 -12 12 -14 6 -15 5 -6 -5z"/>
<path d="M2981 1044 c0 -11 3 -14 6 -6 3 7 2 16 -1 19 -3 4 -6 -2 -5 -13z"/>
<path d="M1435 1024 c0 -13 3 -24 8 -24 4 0 7 9 7 19 0 11 -3 22 -7 24 -5 3
-8 -6 -8 -19z"/>
<path d="M1926 997 c3 -10 9 -15 12 -12 3 3 0 11 -7 18 -10 9 -11 8 -5 -6z"/>
<path d="M1413 979 c-2 -23 3 -25 10 -4 4 8 3 16 -1 19 -4 3 -9 -4 -9 -15z"/>
<path d="M1651 974 c0 -11 3 -14 6 -6 3 7 2 16 -1 19 -3 4 -6 -2 -5 -13z"/>
<path d="M1933 952 c-28 -10 -55 -20 -58 -24 -4 -4 2 -19 13 -35 11 -15 22
-37 25 -48 4 -19 9 12 10 73 1 17 5 22 19 19 10 -3 16 -1 12 4 -3 5 3 9 13 9
10 0 25 5 33 10 23 15 -4 11 -67 -8z m-20 -42 c3 -11 1 -23 -4 -26 -5 -3 -9 4
-9 16 0 12 -4 18 -10 15 -5 -3 -10 -1 -10 4 0 19 28 12 33 -9z"/>
<path d="M1854 921 c4 -41 3 -43 -19 -39 -20 4 -22 3 -12 -13 7 -12 15 -15 21
-9 11 11 39 -58 30 -72 -3 -4 1 -8 8 -8 10 0 9 -3 -2 -10 -19 -12 -10 -19 12
-11 16 6 16 9 3 35 -8 15 -22 60 -30 100 -9 43 -13 54 -11 27z"/>
<path d="M1594 938 c-4 -7 -3 -8 4 -4 7 4 12 1 12 -9 0 -10 5 -13 12 -9 8 5 9
0 6 -14 -4 -12 -2 -22 3 -22 12 0 11 37 -1 45 -6 4 -8 11 -5 16 4 5 -1 9 -9 9
-8 0 -18 -5 -22 -12z"/>
<path d="M1823 925 c-3 -9 -3 -18 -1 -21 3 -3 8 4 11 16 6 23 -1 27 -10 5z"/>
<path d="M1071 888 c-1 -21 4 -37 9 -35 6 1 23 -34 39 -78 15 -44 40 -109 55
-144 14 -36 26 -69 26 -75 1 -6 11 -33 24 -61 l24 -50 -1 54 c-1 31 -4 46 -8
35 -5 -16 -9 -12 -23 20 -19 45 -19 49 -6 41 6 -3 10 -1 10 4 0 6 -7 11 -15
11 -8 0 -14 3 -13 8 0 4 -7 24 -16 45 -9 21 -14 48 -11 60 4 15 3 18 -3 9 -6
-9 -12 -6 -20 13 -7 14 -12 30 -12 35 0 4 -10 30 -22 57 -12 26 -25 57 -29 68
-5 15 -7 10 -8 -17z"/>
<path d="M1597 873 c-4 -18 -1 -32 8 -39 8 -6 12 -13 10 -16 -3 -3 -8 -16 -10
-28 -2 -12 -3 -21 -1 -19 3 2 5 9 6 14 1 6 6 17 11 26 4 9 5 19 2 23 -4 4 -9
19 -11 34 -5 37 -9 38 -15 5z"/>
<path d="M1555 872 c-5 -4 -11 -14 -12 -22 -1 -8 -6 -30 -12 -49 -16 -52 4
-23 22 32 9 26 15 47 14 47 -1 0 -6 -4 -12 -8z"/>
<path d="M980 819 c0 -5 5 -7 10 -4 6 3 10 8 10 11 0 2 -4 4 -10 4 -5 0 -10
-5 -10 -11z"/>
<path d="M1420 824 c0 -5 7 -18 15 -28 8 -11 15 -16 15 -10 0 5 -7 18 -15 28
-8 11 -15 16 -15 10z"/>
<path d="M1055 779 c-4 -12 -2 -26 4 -32 16 -16 26 0 11 18 -8 10 -9 15 -1 15
6 0 11 5 11 10 0 18 -19 10 -25 -11z"/>
<path d="M988 709 c2 -39 6 -68 10 -65 8 8 3 119 -6 128 -4 4 -5 -25 -4 -63z"/>
<path d="M1100 732 c0 -23 4 -42 9 -42 6 0 7 17 4 38 -8 51 -13 53 -13 4z"/>
<path d="M1662 725 c1 -22 -2 -67 -5 -100 -5 -47 -5 -53 3 -30 6 17 12 44 14
62 3 18 7 41 11 53 3 11 2 20 -4 20 -5 0 -12 8 -14 18 -3 9 -5 -1 -5 -23z"/>
<path d="M1890 739 c0 -5 -6 -7 -12 -3 -9 5 -9 2 1 -9 7 -9 14 -42 15 -72 1
-52 15 -80 17 -32 0 12 1 46 2 75 1 36 -2 52 -10 52 -7 0 -13 -5 -13 -11z"/>
<path d="M1470 731 c0 -6 4 -13 10 -16 6 -3 7 1 4 9 -7 18 -14 21 -14 7z"/>
<path d="M1544 731 c10 -16 13 -100 4 -105 -5 -2 -3 -3 4 -2 7 2 21 -18 30
-43 20 -52 22 -65 9 -57 -5 4 -6 -4 -3 -16 5 -20 7 -20 10 -5 2 11 9 16 17 13
15 -6 14 0 -24 87 -23 54 -25 61 -12 53 4 -3 1 15 -8 39 -9 25 -20 45 -24 45
-5 0 -6 -4 -3 -9z"/>
<path d="M1431 725 c0 -5 6 -19 14 -29 8 -11 15 -15 15 -10 0 6 -7 19 -15 30
-8 10 -14 15 -14 9z"/>
<path d="M2122 678 c6 -18 28 -21 28 -4 0 9 -7 16 -16 16 -9 0 -14 -5 -12 -12z"/>
<path d="M1464 646 c9 -14 13 -33 10 -43 -5 -14 -4 -15 4 -4 9 12 12 9 17 -15
4 -16 11 -39 16 -52 5 -13 7 -27 4 -32 -3 -5 0 -12 6 -16 8 -5 9 -3 4 6 -5 8
-3 11 6 8 8 -3 13 -10 12 -16 -2 -6 4 -9 12 -5 14 5 14 7 0 17 -9 6 -18 20
-19 31 -2 11 -9 19 -15 17 -6 -1 -11 10 -11 24 0 14 -9 39 -21 55 -11 16 -17
33 -14 39 3 5 -1 10 -11 10 -15 0 -15 -2 0 -24z"/>
<path d="M1110 640 c0 -5 5 -10 11 -10 5 0 7 5 4 10 -3 6 -8 10 -11 10 -2 0
-4 -4 -4 -10z"/>
<path d="M1255 640 c-3 -5 -1 -10 4 -10 6 0 11 5 11 10 0 6 -2 10 -4 10 -3 0
-8 -4 -11 -10z"/>
<path d="M2090 627 c25 -7 45 -17 45 -24 0 -6 3 -15 8 -19 4 -4 7 8 7 27 0 23
-3 30 -9 20 -6 -9 -11 -10 -15 -2 -4 6 -24 11 -44 10 l-37 -1 45 -11z"/>
<path d="M993 606 c1 -16 9 -31 17 -33 12 -4 13 -3 1 5 -7 5 -11 14 -8 19 3 5
2 15 -3 23 -7 11 -9 6 -7 -14z"/>
<path d="M1136 607 c3 -10 9 -15 12 -12 3 3 0 11 -7 18 -10 9 -11 8 -5 -6z"/>
<path d="M2015 600 c3 -5 11 -7 18 -4 8 3 24 1 37 -4 22 -8 20 -9 -18 -16 -39
-6 -42 -9 -42 -36 0 -17 -6 -33 -14 -36 -8 -3 -15 -13 -16 -22 0 -9 -1 -56 -3
-104 -1 -48 -7 -92 -13 -98 -8 -8 -11 17 -10 96 1 78 -2 108 -11 111 -9 3 -12
-4 -11 -21 1 -14 6 -26 11 -26 4 0 5 -5 1 -12 -4 -6 -8 -32 -9 -57 -4 -87 -4
-88 -15 -71 -6 10 -8 3 -3 -23 5 -32 2 -41 -16 -53 -11 -8 -21 -22 -21 -30 0
-8 -4 -12 -10 -9 -5 3 -10 -1 -10 -9 0 -9 6 -15 13 -14 6 2 11 -4 11 -13 -1
-12 7 -15 35 -14 20 1 39 -3 43 -9 5 -7 8 -7 8 2 0 8 11 3 27 -12 30 -28 45
-27 21 1 -24 28 -30 43 -18 43 13 0 51 -80 43 -93 -2 -4 -11 -3 -19 4 -9 8
-14 8 -14 1 0 -6 6 -15 14 -19 8 -4 14 -17 13 -28 -1 -14 5 -21 22 -23 21 -3
23 -1 17 20 -3 12 -13 50 -22 83 -8 33 -22 68 -29 79 -13 17 -15 17 -30 2 -26
-25 -64 -31 -83 -12 -15 15 -13 20 31 64 26 26 47 53 47 59 0 13 30 26 39 17
3 -3 -3 -13 -14 -21 -20 -15 -20 -15 3 -10 12 3 20 2 17 -3 -3 -4 3 -14 12
-21 14 -12 15 -11 9 9 -9 26 -3 28 18 6 20 -20 21 -88 1 -104 -8 -7 -15 -22
-14 -34 l0 -21 11 21 c5 12 22 27 36 34 19 8 23 13 13 20 -9 5 -12 21 -9 43 2
20 1 35 -2 34 -3 0 -21 9 -40 21 -23 14 -29 22 -17 22 9 0 17 4 17 9 0 5 -9 7
-20 4 -12 -3 -22 1 -26 10 -3 9 -12 13 -20 10 -16 -6 -18 19 -7 106 l6 53 49
-5 c27 -4 48 -2 48 3 0 11 -48 26 -67 22 -15 -3 -17 24 -3 33 19 12 62 16 56
6 -4 -6 3 -15 14 -21 15 -8 19 -17 14 -28 -3 -9 -6 -30 -5 -45 1 -16 -3 -26
-8 -23 -5 3 -7 -14 -6 -40 3 -41 2 -44 -13 -32 -15 12 -16 11 -3 -4 7 -10 11
-27 8 -38 -3 -12 0 -20 7 -20 7 0 17 33 24 83 7 45 18 97 25 115 14 42 0 69
-34 64 -13 -2 -21 -1 -17 4 4 4 3 13 -3 21 -13 15 -84 18 -74 3z m110 -50 c8
-13 -5 -13 -25 0 -13 8 -13 10 2 10 9 0 20 -4 23 -10z"/>
<path d="M1271 584 c0 -11 3 -14 6 -6 3 7 2 16 -1 19 -3 4 -6 -2 -5 -13z"/>
<path d="M1890 579 c0 -5 5 -7 10 -4 6 3 10 8 10 11 0 2 -4 4 -10 4 -5 0 -10
-5 -10 -11z"/>
<path d="M1641 530 c0 -19 4 -53 9 -75 6 -22 24 -116 40 -209 16 -93 31 -171
33 -173 3 -2 7 20 11 48 4 29 10 66 13 83 4 22 2 28 -5 21 -6 -5 -12 -23 -14
-40 -2 -16 -4 2 -4 42 0 39 -5 77 -11 85 -6 7 -21 60 -33 118 -25 119 -39 154
-39 100z"/>
<path d="M1290 535 c0 -8 2 -15 4 -15 2 0 6 7 10 15 3 8 1 15 -4 15 -6 0 -10
-7 -10 -15z"/>
<path d="M1407 529 c4 -13 8 -18 11 -10 2 7 -1 18 -6 23 -8 8 -9 4 -5 -13z"/>
<path d="M1170 471 c0 -6 4 -13 10 -16 6 -3 7 1 4 9 -7 18 -14 21 -14 7z"/>
<path d="M1592 446 c-10 -27 -9 -29 2 -13 12 16 14 16 20 1 3 -8 6 -25 5 -37
0 -21 -1 -21 -10 -2 -8 18 -9 17 -5 -4 3 -14 0 -31 -6 -38 -8 -10 -7 -13 4
-13 24 0 36 70 17 106 l-15 32 -12 -32z"/>
<path d="M1550 448 c0 -4 4 -8 9 -8 6 0 12 4 15 8 3 5 -1 9 -9 9 -8 0 -15 -4
-15 -9z"/>
<path d="M2040 451 c0 -5 7 -12 16 -15 14 -5 15 -4 4 9 -14 17 -20 19 -20 6z"/>
<path d="M1180 421 c0 -25 6 -27 13 -6 4 8 2 17 -3 20 -6 4 -10 -3 -10 -14z"/>
<path d="M2030 419 c0 -5 5 -7 10 -4 9 6 14 -8 11 -28 -1 -5 3 -6 9 -2 7 4 7
12 0 26 -11 20 -30 26 -30 8z"/>
<path d="M1196 392 c-3 -6 1 -13 10 -16 23 -9 28 -2 10 13 -8 7 -17 8 -20 3z"/>
<path d="M1845 368 c1 -10 4 -21 8 -24 3 -4 2 -15 -4 -26 -11 -21 -3 -98 11
-98 4 0 6 10 2 22 -4 16 -2 19 9 13 11 -7 12 -6 3 6 -11 15 -13 97 -2 114 4 6
-1 11 -11 11 -10 0 -17 -7 -16 -18z"/>
<path d="M2046 355 c4 -8 8 -15 10 -15 2 0 4 7 4 15 0 8 -4 15 -10 15 -5 0 -7
-7 -4 -15z"/>
<path d="M1621 314 c0 -11 3 -14 6 -6 3 7 2 16 -1 19 -3 4 -6 -2 -5 -13z"/>
<path d="M1772 306 c5 -24 -5 -36 -15 -18 -2 4 -2 1 0 -6 1 -8 3 -21 4 -30 0
-12 3 -10 10 6 5 13 13 20 19 17 5 -3 10 -1 10 4 0 6 -4 11 -10 11 -5 0 -7 6
-4 14 3 8 0 17 -7 21 -9 6 -10 1 -7 -19z"/>
<path d="M1632 249 c7 -24 14 -36 18 -29 6 10 -15 70 -25 70 -1 0 2 -18 7 -41z"/>
<path d="M2122 225 c0 -16 2 -22 5 -12 2 9 2 23 0 30 -3 6 -5 -1 -5 -18z"/>
<path d="M2030 219 c0 -5 5 -7 10 -4 6 3 10 8 10 11 0 2 -4 4 -10 4 -5 0 -10
-5 -10 -11z"/>
<path d="M1946 197 c3 -10 9 -15 12 -12 3 3 0 11 -7 18 -10 9 -11 8 -5 -6z"/>
<path d="M1657 118 c7 -106 15 -117 12 -17 -1 42 1 81 5 88 4 6 1 11 -7 11
-13 0 -14 -14 -10 -82z"/>
<path d="M1220 172 c0 -5 7 -9 15 -9 8 0 15 4 15 9 0 4 -7 8 -15 8 -8 0 -15
-4 -15 -8z"/>
<path d="M1290 165 c0 -8 6 -15 13 -15 8 0 14 7 14 15 0 8 -6 15 -14 15 -7 0
-13 -7 -13 -15z"/>
<path d="M920 162 c0 -4 9 -15 20 -25 19 -16 20 -16 20 2 0 10 -7 22 -16 25
-20 8 -24 8 -24 -2z"/>
<path d="M1218 123 c5 -21 7 -23 10 -9 2 10 0 22 -6 28 -6 6 -7 0 -4 -19z"/>
<path d="M1255 130 c4 -14 14 -32 22 -40 12 -12 11 -7 -2 20 -22 45 -29 52
-20 20z"/>
<path d="M1381 95 c-17 -20 -31 -38 -31 -40 0 -10 36 18 53 42 30 39 13 37
-22 -2z"/>
<path d="M1489 103 c-13 -16 -12 -17 4 -4 16 13 21 21 13 21 -2 0 -10 -8 -17
-17z"/>
<path d="M1960 100 c0 -5 5 -10 10 -10 6 0 10 5 10 10 0 6 -4 10 -10 10 -5 0
-10 -4 -10 -10z"/>
<path d="M948 93 c7 -3 16 -2 19 1 4 3 -2 6 -13 5 -11 0 -14 -3 -6 -6z"/>
<path d="M1507 86 c-4 -10 -5 -21 -2 -24 9 -9 17 6 13 25 -3 17 -4 17 -11 -1z"/>
<path d="M1190 75 c0 -8 6 -15 14 -15 22 0 28 17 10 24 -22 9 -24 8 -24 -9z"/>
<path d="M1900 71 c0 -25 6 -27 13 -6 4 8 2 17 -3 20 -6 4 -10 -3 -10 -14z"/>
<path d="M1737 63 c-4 -3 -7 -20 -7 -36 0 -38 10 -30 15 12 4 32 3 36 -8 24z"/>
<path d="M1950 34 c0 -8 5 -12 10 -9 6 4 8 11 5 16 -9 14 -15 11 -15 -7z"/>
<path d="M1246 22 c-3 -5 1 -9 9 -9 8 0 15 4 15 9 0 10 -17 10 -24 0z"/>
<path d="M2005 10 c-3 -5 -1 -10 4 -10 6 0 11 5 11 10 0 6 -2 10 -4 10 -3 0
-8 -4 -11 -10z"/>
<path d="M1328 3 c6 -2 18 -2 25 0 6 3 1 5 -13 5 -14 0 -19 -2 -12 -5z"/>
</g>
</svg>
